<svg xmlns="http://www.w3.org/2000/svg" viewBox="0 0 512 512"><path fill="#fcfcfc" stroke="#fcfcfc" d="M97.5 27.661c-34.772 7.442-62.74 35.662-69.915 70.547-2.402 11.678-2.407 303.869-.005 315.584 7.192 35.082 35.546 63.436 70.628 70.628 11.694 2.397 303.89 2.397 315.584 0 35.137-7.203 63.389-35.457 70.623-70.628 2.406-11.7 2.406-303.884 0-315.584-7.245-35.226-35.397-63.378-70.623-70.623-11.32-2.328-305.387-2.258-316.292.076m114.206 83.589c-2.469 1.842-80.93 149.829-80.944 152.672-.025 5.05.249 5.078 48.929 5.078 24.92 0 45.309.176 45.309.391 0 .216-9 28.39-20 62.609s-20 63.036-20 64.037c0 2.56 2.701 4.963 5.578 4.963 2.486 0 189.356-177.78 190.785-181.504.784-2.043-.795-5.122-3.32-6.473-1.231-.659-19.924-1.023-52.477-1.023-27.811 0-50.566-.365-50.566-.811 0-.446 9.45-21.853 21-47.57 11.55-25.718 21-47.603 21-48.633 0-4.904-.893-4.986-54.031-4.986-38.109 0-49.975.289-51.263 1.25" fill-rule="evenodd"/><path fill="#fcd587" stroke="#fcd587" d="M101.164 27.11c-33.417 5.625-61.251 30.631-71.907 64.602L26.5 100.5v311l2.804 8.951c9.7 30.967 33.086 53.827 64.196 62.754l8 2.295h310l8.951-2.804c30.97-9.701 53.826-33.082 62.754-64.196l2.295-8v-309l-2.287-7.895c-9.255-31.953-31.201-54.398-62.916-64.346L411.5 26.5 259 26.356c-86.273-.081-154.817.246-157.836.754m109.597 84.64c-1.393 1.573-72.409 134.383-78.561 146.919-2.432 4.954-2.467 5.275-.845 7.75l1.691 2.581h45.31c24.921 0 45.538.228 45.817.506.278.278-8.422 28.242-19.334 62.143-19.911 61.86-21.053 66.098-18.404 68.297 4.346 3.607 3.811 4.076 94.637-82.946 47.933-45.925 90.251-86.426 94.039-90.001 7.415-6.998 8.364-9.524 4.889-12.999-1.948-1.948-3.333-2-53.607-2-48.738 0-51.57-.097-50.937-1.75.368-.963 9.866-22.232 21.107-47.265 21.108-47.01 21.67-48.559 18.608-51.33-2.886-2.612-102.094-2.521-104.41.095" fill-rule="evenodd"/><path fill="#fcfcfb" stroke="#fcfcfb" d="M100.849 27.564C63.296 34.36 34.088 63.88 27.492 101.705c-2.238 12.835-2.238 295.755 0 308.59 6.658 38.18 36.015 67.552 74.167 74.205 12.877 2.245 295.763 2.253 308.636.008 38.18-6.658 67.552-36.015 74.205-74.167 2.252-12.915 2.252-295.767 0-308.682-6.662-38.2-35.977-67.5-74.205-74.167-12.284-2.142-297.577-2.076-309.446.072m110.405 83.258C209.466 111.957 130 261.601 130 263.832c0 5.603.34 5.644 49.104 5.948 24.693.153 44.896.562 44.896.908 0 .345-9.028 28.719-20.061 63.052-21.851 67.993-21.352 65.725-14.917 67.767 3.171 1.006.868 3.113 94.478-86.45 102.407-97.981 98.5-94.121 98.5-97.314 0-5.866 1.185-5.743-55.436-5.743-41.034 0-51.669-.259-51.255-1.25.287-.687 9.786-21.851 21.107-47.03 20.704-46.045 22.353-50.703 18.65-52.685-2.305-1.233-101.883-1.438-103.812-.213" fill-rule="evenodd"/><path fill="#fcc44c" stroke="#fcc44c" d="M105.472 27.028c-37.58 5.002-67.274 31.577-76.729 68.671L26.5 104.5v303l2.282 9c8.425 33.222 33.502 58.239 66.917 66.757l8.801 2.243h303l9-2.282c33.222-8.425 58.239-33.502 66.757-66.917l2.243-8.801v-303l-2.243-8.801C474.801 62.528 450.102 37.594 417 28.814l-8.5-2.254-148.5-.168c-81.675-.091-151.213.194-154.528.636m106.662 83.237c-2.765 1.444-82.115 149.738-82.127 153.485-.004 1.238.893 3.15 1.993 4.25 1.941 1.941 3.333 2 47.067 2h45.068l-.706 2.25c-.388 1.238-9.419 29.346-20.067 62.463C192.713 367.83 184 395.618 184 396.463c0 2.364 3.714 5.537 6.48 5.537C194.473 402 382 221.933 382 218.098c0-6.227 1.51-6.054-55.178-6.339l-51.541-.259L296.62 164c11.736-26.125 21.347-48.083 21.359-48.795.012-.713-1.084-2.4-2.434-3.75L313.091 109l-49.296.015c-37.154.011-49.878.319-51.661 1.25" fill-rule="evenodd"/></svg>