<?xml version="1.0" encoding="UTF-8"?>
<svg version="1.1" xmlns="http://www.w3.org/2000/svg" width="1413" height="649">
<path d="M0 0 C4.69523323 2.18658876 9.46013208 2.66070868 14.55859375 3.38671875 C27.14419316 5.33279794 39.37098734 7.90782103 50.90234375 13.49609375 C53.98939279 14.833815 57.15793064 15.76590374 60.37109375 16.76171875 C77.02725313 22.09799492 91.49864061 31.54522167 102.24609375 45.51171875 C102.24609375 46.17171875 102.24609375 46.83171875 102.24609375 47.51171875 C102.84035156 47.65867188 103.43460937 47.805625 104.046875 47.95703125 C118.26835769 51.80545736 131.64401368 60.38455947 140.24609375 72.51171875 C141.59061272 75.02280565 142.80526113 77.56700717 144 80.15234375 C145.21223942 82.44761839 146.44747389 83.97525584 148.24609375 85.82421875 C157.19937047 95.60821187 158.60190816 110.99519086 158.37109375 123.63671875 C158.36207031 124.59320313 158.35304688 125.5496875 158.34375 126.53515625 C158.32049202 128.860954 158.28781588 131.18619169 158.24609375 133.51171875 C157.91609375 133.51171875 157.58609375 133.51171875 157.24609375 133.51171875 C157.0759375 132.71507812 156.90578125 131.9184375 156.73046875 131.09765625 C155.10007392 123.96901502 153.8059569 118.64008333 148.18359375 113.69921875 C146.15604049 112.35607338 146.15604049 112.35607338 143.24609375 111.51171875 C143.40005615 112.02154297 143.55401855 112.53136719 143.71264648 113.05664062 C144.41776214 116.30178618 144.58229613 119.47747908 144.78125 122.79296875 C144.84598763 123.86856804 144.84598763 123.86856804 144.91203308 124.96589661 C145.05029672 127.31420356 145.18075537 129.66282197 145.30859375 132.01171875 C145.35278442 132.81926605 145.3969751 133.62681335 145.44250488 134.45883179 C146.85258611 160.72402688 147.62726963 187.86485127 143.72802734 213.98168945 C143.24636222 217.50975228 143.07230419 220.91392696 143 224.47265625 C142.96822025 225.83024564 142.93622844 227.18783009 142.90405273 228.54541016 C142.88095535 229.60710419 142.88095535 229.60710419 142.85739136 230.69024658 C142.45807625 248.66417132 141.4543725 266.57572651 140.24609375 284.51171875 C141.08684448 284.19340088 141.08684448 284.19340088 141.94458008 283.86865234 C147.06219163 282.03089849 151.4356791 281.10224907 156.93359375 281.13671875 C158.17496094 281.12898438 159.41632813 281.12125 160.6953125 281.11328125 C167.10772074 281.83282541 171.09154211 284.71800532 175.24609375 289.51171875 C177.0028716 292.12299628 178.61321755 294.82172734 180.24609375 297.51171875 C180.8647229 298.47404419 180.8647229 298.47404419 181.49584961 299.45581055 C191.183592 315.17744093 187.23164042 330.07452402 183.59291077 347.04405212 C182.45668918 352.34580998 181.60433835 357.63703919 180.88427734 363.01245117 C179.41518699 373.65365471 176.61210228 383.73703818 173.37109375 393.94921875 C173.06057068 394.94485336 173.06057068 394.94485336 172.74377441 395.96060181 C166.87139438 414.59621286 166.87139438 414.59621286 158.99609375 420.01171875 C154.0290197 422.41799018 148.15434674 423.27484434 142.8046875 421.87109375 C139.44353314 420.08532014 137.02679735 417.61494897 134.43359375 414.88671875 C133.93150391 414.37109375 133.42941406 413.85546875 132.91210938 413.32421875 C131.68313148 412.06012721 130.46363374 410.78683069 129.24609375 409.51171875 C126.59259164 415.34902697 124.13058603 421.22446843 121.85546875 427.21875 C121.39688225 428.41765366 121.39688225 428.41765366 120.92903137 429.64077759 C120.28200496 431.33249842 119.63592834 433.02458279 118.99075317 434.7170105 C117.31595603 439.10700051 115.63001787 443.49271128 113.9453125 447.87890625 C113.61848984 448.730186 113.29166718 449.58146576 112.9549408 450.45854187 C112.05224953 452.80969992 111.14923183 455.1607323 110.24609375 457.51171875 C109.80088379 458.6709082 109.35567383 459.83009766 108.89697266 461.02441406 C104.5920061 472.18351165 99.88469225 482.95864772 94.24609375 493.51171875 C93.8996582 494.16591797 93.55322266 494.82011719 93.19628906 495.49414062 C83.93321607 512.8676993 72.68017497 528.6080352 59.39453125 543.140625 C57.48382271 545.24935242 55.64309227 547.3995198 53.80859375 549.57421875 C41.27289509 563.84782109 25.06628965 574.91188931 8.24609375 583.51171875 C7.19156006 584.0533667 7.19156006 584.0533667 6.11572266 584.60595703 C-5.41758036 590.45723991 -17.63033247 595.94112859 -30.75390625 596.51171875 C-31.75421875 596.56328125 -32.75453125 596.61484375 -33.78515625 596.66796875 C-67.31095893 597.57407153 -96.08105209 578.57051467 -119.75390625 556.51171875 C-121.31444391 555.15529115 -122.87691588 553.80108542 -124.44140625 552.44921875 C-128.59931491 548.74926157 -132.19523861 544.78211992 -135.75390625 540.51171875 C-136.47964844 539.67382812 -137.20539063 538.8359375 -137.953125 537.97265625 C-162.13190791 509.70567333 -178.23686757 477.92333967 -190.7093811 443.13769531 C-194.17522051 433.51385307 -197.96781413 424.01312191 -201.75390625 414.51171875 C-204.62735354 414.51171875 -205.39903005 415.92058056 -207.44140625 417.88671875 C-212.75042134 422.58681455 -217.15057701 423.74986022 -224.19140625 423.44921875 C-230.90299553 422.66558539 -235.22824682 419.96722097 -240.00390625 415.32421875 C-242.53091726 411.26295106 -244.08024789 406.97886505 -245.75390625 402.51171875 C-246.18058594 401.48304688 -246.60726562 400.454375 -247.046875 399.39453125 C-251.49138634 388.52437742 -252.77414656 377.94527344 -253.85961914 366.36230469 C-254.40953133 360.60595728 -255.05992454 354.8673321 -255.76953125 349.12890625 C-255.86005768 348.3955455 -255.95058411 347.66218475 -256.04385376 346.90660095 C-256.50057823 343.21921139 -256.96369776 339.532719 -257.43310547 335.84692383 C-257.60524957 334.46827499 -257.77729166 333.08961341 -257.94921875 331.7109375 C-258.10406738 330.49237061 -258.25891602 329.27380371 -258.41845703 328.01831055 C-258.96060145 322.35104688 -259.10079382 317.58079767 -257.14453125 312.19140625 C-256.80164063 311.24394531 -256.45875 310.29648437 -256.10546875 309.3203125 C-255.74195313 308.35222656 -255.3784375 307.38414062 -255.00390625 306.38671875 C-254.48183594 304.92298828 -254.48183594 304.92298828 -253.94921875 303.4296875 C-251.75417306 297.47054493 -249.63319836 292.81515244 -244.56640625 288.76171875 C-235.78533829 284.85902188 -228.46370319 287.28771931 -219.75390625 290.51171875 C-219.09390625 290.84171875 -218.43390625 291.17171875 -217.75390625 291.51171875 C-217.75943701 290.81470761 -217.76496777 290.11769648 -217.77066612 289.39956379 C-217.90388468 272.34304227 -218.00280363 255.28665496 -218.06477928 238.22972584 C-218.09555638 229.98067711 -218.1374224 221.73197825 -218.20654297 213.4831543 C-218.26684559 206.2831528 -218.30517228 199.08340497 -218.31843722 191.88315791 C-218.32617632 188.07987963 -218.34401401 184.27732621 -218.38828659 180.47428322 C-218.57984592 163.35389719 -217.89059922 147.72542984 -211.75390625 131.51171875 C-211.32490021 130.33010666 -210.89589417 129.14849457 -210.45388794 127.93107605 C-209.42548629 125.18675653 -208.30490203 122.50825325 -207.12890625 119.82421875 C-206.71431152 118.85363525 -206.2997168 117.88305176 -205.87255859 116.88305664 C-192.38362284 85.58743011 -192.38362284 85.58743011 -185.75390625 74.51171875 C-183.75390625 75.51171875 -183.75390625 75.51171875 -183.09579468 77.23750305 C-182.90482208 77.987108 -182.71384949 78.73671295 -182.51708984 79.5090332 C-182.29701263 80.35693924 -182.07693542 81.20484528 -181.85018921 82.07844543 C-181.61990021 83.00130844 -181.38961121 83.92417145 -181.15234375 84.875 C-180.79035385 86.29029243 -180.79035385 86.29029243 -180.42105103 87.73417664 C-179.91123977 89.73479895 -179.40544464 91.73644824 -178.90332031 93.73901367 C-178.13418047 96.80320669 -177.35135758 99.86365199 -176.56640625 102.92382812 C-176.07339935 104.86567757 -175.58118574 106.80772862 -175.08984375 108.75 C-174.85550629 109.66679031 -174.62116882 110.58358063 -174.37973022 111.52815247 C-174.16595734 112.38551498 -173.95218445 113.2428775 -173.73193359 114.1262207 C-173.54255219 114.87821243 -173.35317078 115.63020416 -173.15805054 116.40498352 C-172.75390625 118.51171875 -172.75390625 118.51171875 -172.75390625 122.51171875 C-172.19960937 122.22296875 -171.6453125 121.93421875 -171.07421875 121.63671875 C-170.34976563 121.26546875 -169.6253125 120.89421875 -168.87890625 120.51171875 C-168.15960938 120.14046875 -167.4403125 119.76921875 -166.69921875 119.38671875 C-164.75390625 118.51171875 -164.75390625 118.51171875 -162.75390625 118.51171875 C-162.71289795 117.78686279 -162.67188965 117.06200684 -162.62963867 116.31518555 C-162.11399221 108.76590328 -160.88922336 101.6610288 -159.06640625 94.32421875 C-158.66494385 92.69238647 -158.66494385 92.69238647 -158.25537109 91.02758789 C-151.06894327 62.53237012 -138.63193296 34.21427911 -112.42578125 18.5234375 C-104.48609714 14.02638362 -96.50560145 11.5615629 -87.44140625 10.69921875 C-80.5161194 9.95594751 -75.48869682 7.73003108 -69.3894043 4.62158203 C-63.97684253 1.92727992 -58.60567072 0.08321862 -52.75390625 -1.42578125 C-51.98916992 -1.62469971 -51.22443359 -1.82361816 -50.43652344 -2.02856445 C-35.47761422 -5.69021133 -14.08351893 -7.61109321 0 0 Z " fill="#FDFDFD" transform="translate(273.75390625,24.48828125)"/>
<path d="M0 0 C4.69523323 2.18658876 9.46013208 2.66070868 14.55859375 3.38671875 C27.14419316 5.33279794 39.37098734 7.90782103 50.90234375 13.49609375 C53.98939279 14.833815 57.15793064 15.76590374 60.37109375 16.76171875 C77.02725313 22.09799492 91.49864061 31.54522167 102.24609375 45.51171875 C102.24609375 46.17171875 102.24609375 46.83171875 102.24609375 47.51171875 C102.84035156 47.65867188 103.43460937 47.805625 104.046875 47.95703125 C118.26835769 51.80545736 131.64401368 60.38455947 140.24609375 72.51171875 C141.59061272 75.02280565 142.80526113 77.56700717 144 80.15234375 C145.21223942 82.44761839 146.44747389 83.97525584 148.24609375 85.82421875 C157.19937047 95.60821187 158.60190816 110.99519086 158.37109375 123.63671875 C158.36207031 124.59320313 158.35304688 125.5496875 158.34375 126.53515625 C158.32049202 128.860954 158.28781588 131.18619169 158.24609375 133.51171875 C157.91609375 133.51171875 157.58609375 133.51171875 157.24609375 133.51171875 C157.0759375 132.71507812 156.90578125 131.9184375 156.73046875 131.09765625 C155.10007392 123.96901502 153.8059569 118.64008333 148.18359375 113.69921875 C146.15604049 112.35607338 146.15604049 112.35607338 143.24609375 111.51171875 C143.40005615 112.02154297 143.55401855 112.53136719 143.71264648 113.05664062 C144.41776214 116.30178618 144.58229613 119.47747908 144.78125 122.79296875 C144.84598763 123.86856804 144.84598763 123.86856804 144.91203308 124.96589661 C145.05029672 127.31420356 145.18075537 129.66282197 145.30859375 132.01171875 C145.35278442 132.81926605 145.3969751 133.62681335 145.44250488 134.45883179 C146.85258611 160.72402688 147.62726963 187.86485127 143.72802734 213.98168945 C143.24636222 217.50975228 143.07230419 220.91392696 143 224.47265625 C142.96822025 225.83024564 142.93622844 227.18783009 142.90405273 228.54541016 C142.88095535 229.60710419 142.88095535 229.60710419 142.85739136 230.69024658 C142.45807625 248.66417132 141.4543725 266.57572651 140.24609375 284.51171875 C141.08684448 284.19340088 141.08684448 284.19340088 141.94458008 283.86865234 C147.06219163 282.03089849 151.4356791 281.10224907 156.93359375 281.13671875 C158.17496094 281.12898438 159.41632813 281.12125 160.6953125 281.11328125 C167.10772074 281.83282541 171.09154211 284.71800532 175.24609375 289.51171875 C177.0028716 292.12299628 178.61321755 294.82172734 180.24609375 297.51171875 C180.8647229 298.47404419 180.8647229 298.47404419 181.49584961 299.45581055 C191.183592 315.17744093 187.23164042 330.07452402 183.59291077 347.04405212 C182.45668918 352.34580998 181.60433835 357.63703919 180.88427734 363.01245117 C179.41518699 373.65365471 176.61210228 383.73703818 173.37109375 393.94921875 C173.06057068 394.94485336 173.06057068 394.94485336 172.74377441 395.96060181 C166.87139438 414.59621286 166.87139438 414.59621286 158.99609375 420.01171875 C154.0290197 422.41799018 148.15434674 423.27484434 142.8046875 421.87109375 C139.44353314 420.08532014 137.02679735 417.61494897 134.43359375 414.88671875 C133.93150391 414.37109375 133.42941406 413.85546875 132.91210938 413.32421875 C131.68313148 412.06012721 130.46363374 410.78683069 129.24609375 409.51171875 C126.59259164 415.34902697 124.13058603 421.22446843 121.85546875 427.21875 C121.39688225 428.41765366 121.39688225 428.41765366 120.92903137 429.64077759 C120.28200496 431.33249842 119.63592834 433.02458279 118.99075317 434.7170105 C117.31595603 439.10700051 115.63001787 443.49271128 113.9453125 447.87890625 C113.61848984 448.730186 113.29166718 449.58146576 112.9549408 450.45854187 C112.05224953 452.80969992 111.14923183 455.1607323 110.24609375 457.51171875 C109.80088379 458.6709082 109.35567383 459.83009766 108.89697266 461.02441406 C104.5920061 472.18351165 99.88469225 482.95864772 94.24609375 493.51171875 C93.8996582 494.16591797 93.55322266 494.82011719 93.19628906 495.49414062 C83.93321607 512.8676993 72.68017497 528.6080352 59.39453125 543.140625 C57.48382271 545.24935242 55.64309227 547.3995198 53.80859375 549.57421875 C41.27289509 563.84782109 25.06628965 574.91188931 8.24609375 583.51171875 C7.19156006 584.0533667 7.19156006 584.0533667 6.11572266 584.60595703 C-5.41758036 590.45723991 -17.63033247 595.94112859 -30.75390625 596.51171875 C-31.75421875 596.56328125 -32.75453125 596.61484375 -33.78515625 596.66796875 C-67.31095893 597.57407153 -96.08105209 578.57051467 -119.75390625 556.51171875 C-121.31444391 555.15529115 -122.87691588 553.80108542 -124.44140625 552.44921875 C-128.59931491 548.74926157 -132.19523861 544.78211992 -135.75390625 540.51171875 C-136.47964844 539.67382812 -137.20539063 538.8359375 -137.953125 537.97265625 C-162.13190791 509.70567333 -178.23686757 477.92333967 -190.7093811 443.13769531 C-194.17522051 433.51385307 -197.96781413 424.01312191 -201.75390625 414.51171875 C-204.62735354 414.51171875 -205.39903005 415.92058056 -207.44140625 417.88671875 C-212.75042134 422.58681455 -217.15057701 423.74986022 -224.19140625 423.44921875 C-230.90299553 422.66558539 -235.22824682 419.96722097 -240.00390625 415.32421875 C-242.53091726 411.26295106 -244.08024789 406.97886505 -245.75390625 402.51171875 C-246.18058594 401.48304688 -246.60726562 400.454375 -247.046875 399.39453125 C-251.49138634 388.52437742 -252.77414656 377.94527344 -253.85961914 366.36230469 C-254.40953133 360.60595728 -255.05992454 354.8673321 -255.76953125 349.12890625 C-255.86005768 348.3955455 -255.95058411 347.66218475 -256.04385376 346.90660095 C-256.50057823 343.21921139 -256.96369776 339.532719 -257.43310547 335.84692383 C-257.60524957 334.46827499 -257.77729166 333.08961341 -257.94921875 331.7109375 C-258.10406738 330.49237061 -258.25891602 329.27380371 -258.41845703 328.01831055 C-258.96060145 322.35104688 -259.10079382 317.58079767 -257.14453125 312.19140625 C-256.80164063 311.24394531 -256.45875 310.29648437 -256.10546875 309.3203125 C-255.74195313 308.35222656 -255.3784375 307.38414062 -255.00390625 306.38671875 C-254.48183594 304.92298828 -254.48183594 304.92298828 -253.94921875 303.4296875 C-251.75417306 297.47054493 -249.63319836 292.81515244 -244.56640625 288.76171875 C-235.78533829 284.85902188 -228.46370319 287.28771931 -219.75390625 290.51171875 C-219.09390625 290.84171875 -218.43390625 291.17171875 -217.75390625 291.51171875 C-217.75943701 290.81470761 -217.76496777 290.11769648 -217.77066612 289.39956379 C-217.90388468 272.34304227 -218.00280363 255.28665496 -218.06477928 238.22972584 C-218.09555638 229.98067711 -218.1374224 221.73197825 -218.20654297 213.4831543 C-218.26684559 206.2831528 -218.30517228 199.08340497 -218.31843722 191.88315791 C-218.32617632 188.07987963 -218.34401401 184.27732621 -218.38828659 180.47428322 C-218.57984592 163.35389719 -217.89059922 147.72542984 -211.75390625 131.51171875 C-211.32490021 130.33010666 -210.89589417 129.14849457 -210.45388794 127.93107605 C-209.42548629 125.18675653 -208.30490203 122.50825325 -207.12890625 119.82421875 C-206.71431152 118.85363525 -206.2997168 117.88305176 -205.87255859 116.88305664 C-192.38362284 85.58743011 -192.38362284 85.58743011 -185.75390625 74.51171875 C-183.75390625 75.51171875 -183.75390625 75.51171875 -183.04437256 77.38694763 C-182.82960266 78.20727982 -182.61483276 79.027612 -182.39355469 79.87280273 C-182.14700134 80.80144638 -181.900448 81.73009003 -181.64642334 82.68687439 C-181.38798645 83.70028397 -181.12954956 84.71369354 -180.86328125 85.7578125 C-180.59501526 86.79809097 -180.32674927 87.83836945 -180.050354 88.91017151 C-179.48441405 91.120837 -178.92317245 93.33270969 -178.36621094 95.5456543 C-177.5140081 98.9093462 -176.63081353 102.26387791 -175.74609375 105.61914062 C-175.19988102 107.76903882 -174.6555512 109.91941644 -174.11328125 112.0703125 C-173.84674744 113.065504 -173.58021362 114.0606955 -173.30560303 115.08604431 C-171.19619098 123.71515593 -172.38159019 130.62541664 -175.62890625 138.82421875 C-177.55350506 143.88255094 -179.17412919 148.99211982 -180.7265625 154.17578125 C-181.27188525 155.94652509 -181.83386343 157.71535585 -182.5110321 159.43998718 C-184.79410899 165.45551992 -185.02329342 170.55401816 -184.73828125 176.9296875 C-184.69058719 178.98897755 -184.64851249 181.04840352 -184.61132812 183.10791016 C-184.59126709 184.18308899 -184.57120605 185.25826782 -184.55053711 186.36602783 C-184.16251034 214.1023237 -190.08745926 238.00054438 -200.75390625 263.51171875 C-201.08390625 263.84171875 -201.41390625 264.17171875 -201.75390625 264.51171875 C-202.15139925 266.85895841 -202.49759348 269.21500423 -202.81640625 271.57421875 C-202.99300781 272.86457031 -203.16960937 274.15492188 -203.3515625 275.484375 C-203.48433594 276.48339844 -203.61710937 277.48242188 -203.75390625 278.51171875 C-196.55689838 276.64139446 -191.1291931 273.56551181 -185.31640625 269.07421875 C-171.33454712 258.34559948 -157.64629965 256.11363653 -140.31640625 256.19921875 C-139.61335358 256.20004456 -138.9103009 256.20087036 -138.1859436 256.20172119 C-109.60304079 256.27896239 -109.60304079 256.27896239 -101.75390625 261.51171875 C-102.20193604 261.95451172 -102.64996582 262.39730469 -103.11157227 262.85351562 C-105.18260721 264.90348558 -107.24951322 266.95757308 -109.31640625 269.01171875 C-110.37311523 270.05585937 -110.37311523 270.05585937 -111.45117188 271.12109375 C-114.83788226 274.49219717 -118.13285759 277.88858729 -121.25 281.51171875 C-125.6973116 286.6756016 -130.57850581 291.38417878 -135.4375 296.15625 C-139.46887757 300.14388749 -143.2842715 304.22233127 -146.98095703 308.52050781 C-150.78214763 312.78964999 -154.95460494 316.71045709 -159.05664062 320.6875 C-162.83726343 324.40697096 -166.01282894 327.96450522 -168.75390625 332.51171875 C-167.56539063 332.79144531 -166.376875 333.07117188 -165.15234375 333.359375 C-152.1464073 336.48360984 -139.45022778 340.31056933 -126.75390625 344.51171875 C-130.26196453 354.57779664 -133.8773674 364.58039542 -137.75390625 374.51171875 C-139.08355732 377.98379352 -140.41121052 381.45662582 -141.73828125 384.9296875 C-142.75390625 387.51171875 -142.75390625 387.51171875 -143.75390625 389.51171875 C-149.4294135 389.00247298 -153.65722776 387.44228092 -158.69140625 384.82421875 C-159.39579834 384.46336182 -160.10019043 384.10250488 -160.82592773 383.73071289 C-165.85786072 381.10021207 -170.50617142 378.3107492 -174.75390625 374.51171875 C-175.36492187 373.96902344 -175.9759375 373.42632812 -176.60546875 372.8671875 C-189.96507728 360.27504585 -196.94801955 338.32157526 -197.92871094 320.29931641 C-198.21196607 310.37557112 -198.47983733 300.32005878 -196.75390625 290.51171875 C-199.72390625 290.51171875 -202.69390625 290.51171875 -205.75390625 290.51171875 C-206.64825218 301.94628471 -207.48196708 313.38515901 -208.31640625 324.82421875 C-208.45635741 326.74023604 -208.5963312 328.65625168 -208.73632812 330.57226562 C-209.07578151 335.218731 -209.41492954 339.86521857 -209.75390625 344.51171875 C-210.08390625 344.51171875 -210.41390625 344.51171875 -210.75390625 344.51171875 C-211.57907377 340.13901284 -212.38660967 335.76321585 -213.19140625 331.38671875 C-213.42150391 330.16855469 -213.65160156 328.95039063 -213.88867188 327.6953125 C-215.04531719 321.35890771 -215.84558835 315.29874407 -216.0390625 308.85546875 C-216.28446275 303.68844429 -216.28446275 303.68844429 -219.37890625 299.61328125 C-228.73399698 295.20867717 -228.73399698 295.20867717 -238.75390625 295.51171875 C-243.62480619 298.68839262 -244.6787409 302.67007719 -246.0625 308.0390625 C-246.75390625 310.51171875 -246.75390625 310.51171875 -248.44140625 313.94921875 C-251.72632693 322.86543203 -249.27621308 333.05763123 -247.87890625 342.19921875 C-246.33938264 352.70178686 -245.1299813 363.15366956 -244.43798828 373.74682617 C-243.9458921 380.80709159 -243.00551401 387.37720523 -239.87890625 393.82421875 C-238.25908517 397.26708569 -237.00359898 400.70976964 -235.81640625 404.32421875 C-233.9571404 409.57866571 -231.75445917 412.01144229 -226.75390625 414.51171875 C-222.59428992 414.93666973 -218.8988412 414.98010123 -215.00390625 413.38671875 C-211.08012061 410.11689738 -208.13671828 407.3632451 -207.07836914 402.24438477 C-206.75505232 398.52490332 -206.89888136 395.24483098 -207.3125 391.5390625 C-207.41450462 390.57160851 -207.41450462 390.57160851 -207.51856995 389.58460999 C-207.73475041 387.53850779 -207.96179991 385.49385471 -208.19140625 383.44921875 C-209.31152121 373.42388711 -209.97554192 363.60746975 -209.75390625 353.51171875 C-207.37890625 352.88671875 -207.37890625 352.88671875 -204.75390625 352.51171875 C-201.74341978 355.52220522 -202.09707467 359.1122089 -201.75390625 363.17578125 C-201.67269531 364.04181976 -201.59148437 364.90785828 -201.5078125 365.80014038 C-201.24804623 368.57829688 -200.99998146 371.35731848 -200.75390625 374.13671875 C-200.5069187 376.89458558 -200.25720948 379.65209392 -200 382.4090271 C-199.84016728 384.12479094 -199.68618301 385.84111333 -199.5390625 387.55801392 C-198.83164173 395.20031074 -197.02190335 402.10733648 -194.36328125 409.328125 C-194.13813339 409.94226257 -193.91298553 410.55640015 -193.68101501 411.18914795 C-192.95963985 413.15246486 -192.23204075 415.11339978 -191.50390625 417.07421875 C-191.00222697 418.43443986 -190.50068133 419.79471028 -189.99926758 421.1550293 C-187.13918614 428.89299386 -184.18820998 436.58198112 -181.046875 444.2109375 C-179.89563053 447.14991507 -178.8947407 450.10709667 -177.921875 453.10864258 C-171.58971403 472.33424974 -161.90236101 491.64234641 -150.75390625 508.51171875 C-150.38458984 509.07197754 -150.01527344 509.63223633 -149.63476562 510.20947266 C-142.21577765 521.39166961 -133.92970813 531.72514368 -124.75390625 541.51171875 C-124.0563623 542.26026123 -124.0563623 542.26026123 -123.34472656 543.02392578 C-104.38828712 563.20476475 -74.69759063 585.65697921 -45.95703125 587.078125 C-43.63948946 587.10594011 -41.32142368 587.10399448 -39.00390625 587.07421875 C-37.77744385 587.06253662 -36.55098145 587.05085449 -35.28735352 587.03881836 C-25.3501075 586.79826897 -16.88022041 585.39599623 -7.75390625 581.51171875 C-6.99319824 581.19525391 -6.23249023 580.87878906 -5.44873047 580.55273438 C42.49912076 560.2153303 77.82023372 515.77591162 97.12561035 468.35113525 C101.12094872 458.28512153 104.81166894 448.10752157 108.4901123 437.92260742 C110.40244026 432.67543032 112.46625955 427.52770567 114.69140625 422.40625 C124.23394403 400.0751356 126.46043245 377.60191298 128.24609375 353.51171875 C130.62109375 352.88671875 130.62109375 352.88671875 133.24609375 352.51171875 C135.24609375 354.51171875 135.24609375 354.51171875 135.30541992 357.0234375 C135.21752197 358.07144531 135.12962402 359.11945313 135.0390625 360.19921875 C134.94633057 361.36445068 134.85359863 362.52968262 134.75805664 363.73022461 C134.65098389 364.97811768 134.54391113 366.22601074 134.43359375 367.51171875 C134.34263428 368.78088135 134.2516748 370.05004395 134.15795898 371.35766602 C133.75480943 376.91322908 133.31614777 382.41355241 132.42578125 387.9140625 C131.51244384 394.12941747 130.8829203 399.16397871 134.8359375 404.4921875 C138.98082071 409.19200852 142.57035331 413.21844866 148.98828125 413.921875 C153.05905978 413.40936691 155.61313412 412.65356973 158.24609375 409.51171875 C160.07909738 406.03074656 161.33538517 402.42000554 162.54248047 398.68066406 C163.03504664 397.16228869 163.54322163 395.64892901 164.06298828 394.13964844 C169.39984547 378.62670677 172.28747408 363.04682012 174.73046875 346.85107422 C175.29955877 343.16546186 175.93541991 339.49677401 176.60668945 335.82861328 C176.97434476 333.81814961 177.31990673 331.80368192 177.6640625 329.7890625 C178.01127431 327.8339571 178.39652452 325.88412541 178.859375 323.953125 C180.15555786 317.63000685 177.64986768 313.22228601 174.796875 307.6015625 C173.52638458 305.07018234 172.55089883 302.69478533 171.68359375 300.01171875 C169.54844049 294.81308473 166.39463107 291.67902582 161.24609375 289.51171875 C154.13087254 288.30682389 148.79944059 290.19466639 142.49609375 293.41796875 C140.24609375 294.51171875 140.24609375 294.51171875 138.24609375 294.51171875 C138.26349609 295.09477783 138.28089844 295.67783691 138.29882812 296.27856445 C138.44411578 305.47579186 137.57664576 314.55106931 136.74609375 323.69921875 C136.60112301 325.33524757 136.45658848 326.97131511 136.3125 328.60742188 C135.96205418 332.57598468 135.60572503 336.54397823 135.24609375 340.51171875 C134.91609375 340.51171875 134.58609375 340.51171875 134.24609375 340.51171875 C133.1477056 323.83975569 133.13733488 307.21038839 133.24609375 290.51171875 C130.27609375 290.51171875 127.30609375 290.51171875 124.24609375 290.51171875 C124.57609375 291.50171875 124.90609375 292.49171875 125.24609375 293.51171875 C127.02850749 320.72624342 124.71308832 347.81245386 107.37890625 370.08984375 C96.26778961 382.70686264 78.20086295 390.65128697 61.5703125 392.39453125 C56.13376888 392.66864269 50.68727074 392.58049767 45.24609375 392.51171875 C46.57465569 389.58528638 48.04173552 387.44164245 50.2578125 385.12109375 C50.84715576 384.49823486 51.43649902 383.87537598 52.04370117 383.23364258 C52.66736572 382.58290771 53.29103027 381.93217285 53.93359375 381.26171875 C55.21573754 379.90709541 56.49699896 378.55163632 57.77734375 377.1953125 C58.69 376.23020752 58.69 376.23020752 59.62109375 375.24560547 C61.97620752 372.7326821 64.23052959 370.14119711 66.4765625 367.53125 C68.85493872 364.81685595 71.30121729 362.1660275 73.74609375 359.51171875 C77.39101619 355.55246242 80.98869872 351.56043682 84.51171875 347.4921875 C86.51873913 345.2003872 88.57012226 342.95175123 90.62109375 340.69921875 C95.35829827 335.45649499 99.81837252 330.01758487 104.24609375 324.51171875 C103.67648926 324.4152002 103.10688477 324.31868164 102.52001953 324.21923828 C95.17593655 322.87318845 88.20572868 320.71805792 81.12109375 318.38671875 C79.97382813 318.01417969 78.8265625 317.64164062 77.64453125 317.2578125 C74.84338162 316.34743887 72.04400358 315.43199126 69.24609375 314.51171875 C68.20827162 310.64388365 68.31172024 308.35596629 69.66137695 304.60131836 C69.99534988 303.65361069 70.32932281 302.70590302 70.67341614 301.72947693 C71.04415756 300.71789017 71.41489899 299.70630341 71.796875 298.6640625 C72.17087936 297.61521378 72.54488373 296.56636505 72.93022156 295.48573303 C74.12822427 292.13599014 75.34347245 288.79278468 76.55859375 285.44921875 C77.36630566 283.19374273 78.17295881 280.93788725 78.97851562 278.68164062 C80.46048822 274.54979929 81.94269439 270.41808347 83.44262695 266.29272461 C83.74320511 265.46397324 84.04378326 264.63522186 84.35346985 263.78135681 C85.20456098 261.61732243 86.17129478 259.57242938 87.24609375 257.51171875 C97.86019541 259.75700949 106.51680259 263.52472998 114.796875 270.578125 C120.00417612 274.6891522 125.70724508 277.41226632 132.24609375 278.51171875 C132.53489372 253.26182769 124.24336214 226.99318652 109.57104492 206.12988281 C107.83113702 202.6917453 107.98265936 199.71084837 108.15625 195.96484375 C108.18769824 194.47289839 108.21497163 192.98086041 108.23852539 191.48876953 C108.25932663 190.32912689 108.25932663 190.32912689 108.2805481 189.14605713 C108.44042989 175.55349471 108.06475948 165.35799708 98.51171875 154.88671875 C97.68510742 154.04367188 97.68510742 154.04367188 96.84179688 153.18359375 C94.78368301 151.02723454 93.04896621 148.69957285 91.28491211 146.30151367 C89.3355186 143.65510429 87.28479859 141.08958519 85.24609375 138.51171875 C84.49714844 137.55652344 83.74820312 136.60132813 82.9765625 135.6171875 C79.18009098 130.86328708 75.24212433 126.23758127 71.12109375 121.76171875 C70.35539062 120.92125 69.5896875 120.08078125 68.80078125 119.21484375 C66.27426326 117.17570817 66.27426326 117.17570817 62.76171875 117.60546875 C59.62538727 118.41394531 57.02537653 119.35842615 54.12109375 120.76171875 C27.3831925 132.16901078 -2.79203524 131.78702788 -31.31640625 131.88671875 C-33.12318344 131.89863754 -33.12318344 131.89863754 -34.96646118 131.91079712 C-59.90576181 132.03702641 -82.86997422 128.50796658 -106.703125 121.34375 C-124.08971405 116.60195299 -143.22726722 118.51814811 -158.91796875 127.05078125 C-161.75390625 128.51171875 -161.75390625 128.51171875 -163.75390625 128.51171875 C-163.20808085 94.76978499 -152.07131743 58.20640688 -129.75390625 32.51171875 C-128.97853516 31.59326172 -128.97853516 31.59326172 -128.1875 30.65625 C-117.79024634 19.2687817 -102.62003709 12.14327454 -87.44140625 10.69921875 C-80.5161194 9.95594751 -75.48869682 7.73003108 -69.3894043 4.62158203 C-63.97684253 1.92727992 -58.60567072 0.08321862 -52.75390625 -1.42578125 C-51.98916992 -1.62469971 -51.22443359 -1.82361816 -50.43652344 -2.02856445 C-35.47761422 -5.69021133 -14.08351893 -7.61109321 0 0 Z " fill="#013154" transform="translate(273.75390625,24.48828125)"/>
<path d="M0 0 C20.79 0 41.58 0 63 0 C70.57108052 22.51400259 77.96530489 45.07969385 85.25 67.6875 C85.56891457 68.6770657 85.56891457 68.6770657 85.89427185 69.68662262 C91.61883431 87.4505283 97.31180048 105.22437651 103 123 C103.33 82.41 103.66 41.82 104 0 C124.79 0 145.58 0 167 0 C167 94.71 167 189.42 167 287 C144.89 287 122.78 287 100 287 C95.2665625 271.2528125 95.2665625 271.2528125 90.4375 255.1875 C89.4777124 251.99731201 88.5179248 248.80712402 87.52905273 245.52026367 C79.57872664 219.04353288 71.80086069 192.52292634 64 166 C63.67 205.93 63.34 245.86 63 287 C42.21 287 21.42 287 0 287 C0 192.29 0 97.58 0 0 Z " fill="#003053" transform="translate(990,331)"/>
<path d="M0 0 C24.42 0 48.84 0 74 0 C74.33 33 74.66 66 75 100 C83.00354239 73.07653535 83.00354239 73.07653535 91.00463867 46.15234375 C92.56896973 40.89257812 92.56896973 40.89257812 93.30635071 38.41430664 C93.81070503 36.7184642 94.3146311 35.02249436 94.81819153 33.32641602 C95.59022248 30.72641014 96.36370251 28.12683889 97.13745117 25.52734375 C97.46177895 24.43328468 97.46177895 24.43328468 97.79265881 23.31712341 C100.11711701 15.51875906 102.57200431 7.76958622 105 0 C128.1 0 151.2 0 175 0 C168.90027955 18.93277572 162.74702901 37.83778348 156.38062286 56.68214417 C154.43500015 62.44865972 152.50210967 68.21945979 150.56863785 73.9900589 C148.91694785 78.91585452 147.25659763 83.83845432 145.58007812 88.75585938 C143.91918403 93.6290755 142.28032442 98.50920533 140.65626144 103.39481354 C140.04301409 105.22661685 139.42190065 107.05580805 138.79243851 108.88210297 C137.92212678 111.41066977 137.08040826 113.94715053 136.24462891 116.48730469 C135.98511948 117.21968353 135.72561005 117.95206238 135.45823669 118.70663452 C133.65712599 124.33188046 134.30586961 128.40820683 136 134 C136.37403709 135.40225578 136.37403709 135.40225578 136.75563049 136.83283997 C137.11551308 138.04830757 137.11551308 138.04830757 137.48266602 139.28833008 C137.90333595 140.71714256 137.90333595 140.71714256 138.33250427 142.17481995 C138.63656693 143.19607468 138.94062958 144.21732941 139.25390625 145.26953125 C139.58306534 146.3837999 139.91222443 147.49806854 140.25135803 148.64610291 C141.16111811 151.72317584 142.07365223 154.79940952 142.98743439 157.87528992 C143.76145756 160.48272366 144.53304938 163.09087417 145.30462265 165.69903374 C150.14495255 182.06010067 155.01415434 198.41259137 159.88454247 214.76473045 C160.74994861 217.67030608 161.61525061 220.57591271 162.48054504 223.48152161 C165.04769205 232.10118066 167.61573189 240.72056888 170.18810558 249.33866978 C171.26081648 252.93324661 172.33248911 256.52813246 173.40395927 260.1230793 C173.90820753 261.8139362 174.41294939 263.50464599 174.91819954 265.19520378 C175.6102646 267.51095778 176.30068962 269.82719454 176.99072266 272.14355469 C177.19625039 272.82971768 177.40177813 273.51588068 177.61353397 274.22283649 C179 278.88603514 179 278.88603514 179 280 C153.59 280 128.18 280 102 280 C96.42041897 257.47221876 96.42041897 257.47221876 94.01953125 247.77148438 C92.38972286 241.18630257 90.75971409 234.60117087 89.12841797 228.01635742 C87.81131229 222.699732 86.4951837 217.38286553 85.17969513 212.06583977 C84.68094991 210.05068519 84.18186938 208.03561356 83.68242645 206.02063179 C82.97583637 203.16966282 82.27050711 200.31838441 81.56542969 197.46704102 C81.3647438 196.65854202 81.16405792 195.85004303 80.95729065 195.01704407 C78.90160841 186.6932083 76.96422868 178.3479719 75 170 C74.67 206.3 74.34 242.6 74 280 C49.58 280 25.16 280 0 280 C0 187.6 0 95.2 0 0 Z " fill="#003054" transform="translate(1207,30)"/>
<path d="M0 0 C128.14104087 0 128.14104087 0 145.93359375 16.7421875 C160.30594301 32.44581296 162.54567106 53.68563977 162.39111328 74.0456543 C162.37498919 76.56418793 162.39108607 79.08112297 162.41015625 81.59960938 C162.42829192 95.86872197 161.90741096 112.49595066 152 123.75 C145.80929727 129.50041568 137.05745128 131.98563718 129 134 C130.2684375 134.43699219 130.2684375 134.43699219 131.5625 134.8828125 C144.50997819 139.5615603 153.35519211 145.91411068 159.375 158.625 C162.47514932 165.66099107 162.14077712 173.26566243 162.11352539 180.80053711 C162.11367142 181.86469849 162.11381744 182.92885986 162.1139679 184.02526855 C162.11327388 187.52598137 162.10550545 191.02664029 162.09765625 194.52734375 C162.09579025 196.96114574 162.09436721 199.39494811 162.09336853 201.82875061 C162.08955766 208.22214807 162.07973959 214.61552268 162.06866455 221.00891113 C162.05661717 228.68655169 162.05204138 236.36419991 162.04621124 244.04184723 C162.03652707 255.6945807 162.01736047 267.34726405 162 279 C139.56 279 117.12 279 94 279 C93.95101563 271.16378906 93.90203125 263.32757813 93.8515625 255.25390625 C93.81616633 250.28188833 93.78020063 245.30988755 93.7421875 240.33789062 C93.68193999 232.4506275 93.62377187 224.56338829 93.578125 216.67602539 C93.54118084 210.31524064 93.4947959 203.95458765 93.44193649 197.59391594 C93.42344107 195.17034154 93.40831532 192.74673895 93.39665604 190.32312202 C93.37971063 186.92173978 93.35065521 183.52065612 93.31884766 180.11938477 C93.31668747 179.12316101 93.31452728 178.12693726 93.31230164 177.1005249 C93.46321448 167.10668385 93.46321448 167.10668385 89.555933 158.3168726 C84.91519751 154.38916015 78.82120257 154.16424051 73 153 C73 194.58 73 236.16 73 279 C48.91 279 24.82 279 0 279 C0 186.93 0 94.86 0 0 Z M73 48 C73 68.13 73 88.26 73 109 C82.11009556 109.20052549 82.11009556 109.20052549 90 106 C94.28479901 100.74766573 94.16436773 94.65432301 94.203125 88.13671875 C94.21167511 87.01049858 94.21167511 87.01049858 94.22039795 85.86152649 C94.22981369 84.27724603 94.23636826 82.6929463 94.24023438 81.10864258 C94.24992724 78.70553807 94.28097682 76.30329435 94.3125 73.90039062 C94.31903263 72.35417169 94.32428208 70.8079467 94.328125 69.26171875 C94.3404718 68.55311203 94.3528186 67.84450531 94.36553955 67.11442566 C94.34231094 61.82036823 93.14454691 57.84991942 91 53 C86.17570477 48.37625284 79.3093003 48.63093003 73 48 Z " fill="#003053" transform="translate(1026,32)"/>
<path d="M0 0 C0.79550735 0.00092179 1.59101469 0.00184359 2.41062832 0.00279331 C3.32073162 0.00141865 4.23083492 0.00004398 5.16851711 -0.00137234 C6.1748016 0.00222294 7.18108608 0.00581821 8.21786404 0.00952244 C9.27139568 0.00937641 10.32492733 0.00923038 11.41038418 0.00907993 C14.91125415 0.00977957 18.41207166 0.01757435 21.9129324 0.02539158 C24.33288958 0.02725558 26.75284714 0.02867957 29.17280483 0.0296793 C35.55642639 0.03350591 41.94002536 0.04333742 48.32363796 0.05438328 C54.83191529 0.06459432 61.34019625 0.06917626 67.84847927 0.0742197 C80.62908789 0.08495956 93.40968082 0.10184671 106.19027615 0.12304783 C109.01491174 14.20891869 111.1005217 28.39279781 113.20272732 42.60107517 C113.59699734 45.25044128 113.99150637 47.8997708 114.38630581 50.54905796 C115.34092224 56.95874114 116.29233236 63.36889616 117.24260899 69.77922402 C118.35009696 77.2492273 119.46080796 84.71875029 120.57163004 92.18825836 C122.55239315 105.50827414 124.53024427 118.82872065 126.50643826 132.14941502 C128.42385398 145.07389331 130.34338338 157.99805537 132.26522732 170.92187595 C132.38391897 171.72004338 132.50261062 172.51821081 132.62489899 173.34056513 C132.80263152 174.5357635 132.80263152 174.5357635 132.98395461 175.75510728 C135.17494345 190.48895766 137.3640223 205.22309124 139.5521734 219.9573633 C140.32573069 225.16594903 141.09984784 230.37445138 141.87413502 235.58292866 C142.81582316 241.91775173 143.75640963 248.25273728 144.69560739 254.58793007 C145.17489215 257.82072265 145.65479361 261.05342152 146.13563442 264.28598309 C146.65573872 267.78309885 147.17406484 271.28047348 147.69190884 274.77792454 C147.84550041 275.80785003 147.99909198 276.83777552 148.15733784 277.89891088 C148.29482357 278.83005921 148.4323093 279.76120753 148.57396126 280.72057247 C148.69384555 281.52829802 148.81372983 282.33602357 148.93724698 283.16822565 C149.19027615 285.12304783 149.19027615 285.12304783 149.19027615 287.12304783 C123.78027615 287.12304783 98.37027615 287.12304783 72.19027615 287.12304783 C70.60678924 283.95607401 70.70440884 280.4882016 70.4363699 277.00195408 C70.37119671 276.18742268 70.30602352 275.37289127 70.23887539 274.5336771 C70.10155106 272.80296917 69.96635294 271.07209144 69.83309841 269.34106541 C69.63096854 266.72683634 69.4199286 264.11343973 69.20785427 261.50000095 C69.07514806 259.81319476 68.94297087 258.12634686 68.8113699 256.43945408 C68.74888561 255.67129871 68.68640133 254.90314335 68.62202358 254.11171055 C68.16579353 248.06309526 68.19027615 242.23981463 68.19027615 236.12304783 C59.61027615 236.12304783 51.03027615 236.12304783 42.19027615 236.12304783 C42.08715115 238.41242283 41.98402615 240.70179783 41.87777615 243.06054783 C40.96356657 257.77101104 39.52466834 272.44473374 38.19027615 287.12304783 C12.45027615 287.12304783 -13.28972385 287.12304783 -39.80972385 287.12304783 C-39.20060776 277.98630648 -38.55077032 269.07628767 -37.32949924 260.0377512 C-37.1823425 258.9189977 -37.03518576 257.8002442 -36.88356972 256.64758909 C-36.39610777 252.95079526 -35.90177642 249.25495529 -35.4073801 245.55908298 C-35.05377459 242.88862888 -34.70054984 240.21812688 -34.34777927 237.5475626 C-33.49274907 231.08167748 -32.63252427 224.61649403 -31.77038741 218.15155305 C-31.07022854 212.9004381 -30.37204042 207.64906453 -29.67523289 202.39750385 C-29.5259997 201.27280112 -29.5259997 201.27280112 -29.3737517 200.12537711 C-29.17162181 198.60193954 -28.96949709 197.07850128 -28.7673775 195.55506234 C-26.87773084 181.31384919 -24.98222739 167.07342045 -23.0846163 152.83326666 C-21.45574439 140.608823 -19.83166001 128.38375112 -18.21109104 116.15820408 C-16.32682569 101.94336408 -14.43984223 87.72888958 -12.5483284 73.51501215 C-12.34695451 72.00173215 -12.14558331 70.4884518 -11.94421482 68.97517109 C-11.79560642 67.85840856 -11.79560642 67.85840856 -11.64399582 66.71908516 C-10.94511239 61.46572411 -10.24816517 56.21210825 -9.55194187 50.95839405 C-8.70516783 44.56909463 -7.85535724 38.18020796 -7.00159955 31.79183783 C-6.56591682 28.53120971 -6.13207712 25.27035499 -5.70098591 22.00911617 C-5.23456203 18.4823985 -4.7629584 14.95641289 -4.28994846 11.43057346 C-4.15346929 10.38927111 -4.01699011 9.34796876 -3.8763752 8.27511179 C-3.74959861 7.33837103 -3.62282202 6.40163026 -3.49220371 5.43650341 C-3.38376605 4.62178054 -3.27532839 3.80705768 -3.16360474 2.96764624 C-2.69670277 0.53392727 -2.49200789 0.16943809 0 0 Z M54.19027615 71.12304783 C52.93333732 80.90462187 51.68106487 90.68678215 50.43419838 100.4696455 C49.85462878 105.01584928 49.27365555 109.56186297 48.68905544 114.10742283 C43.46208222 149.00717288 43.46208222 149.00717288 41.19027615 184.12304783 C49.44027615 184.12304783 57.69027615 184.12304783 66.19027615 184.12304783 C65.99917263 182.22772312 65.80806911 180.33239841 65.61117458 178.37963963 C64.71885891 169.523478 63.82877287 160.6670934 62.94027615 151.81054783 C62.82070112 150.61864967 62.82070112 150.61864967 62.69871044 149.40267277 C60.08295932 123.31964786 57.5475767 97.23088184 55.19027615 71.12304783 C54.86027615 71.12304783 54.53027615 71.12304783 54.19027615 71.12304783 Z " fill="#003054" transform="translate(821.8097238540649,330.8769521713257)"/>
<path d="M0 0 C26.44975511 -0.76504933 50.64015745 5.36038792 70.69921875 23.25 C85.81776995 37.58612201 88.30922588 55.14135109 90.3515625 75.15625 C90.3515625 86.04625 90.3515625 96.93625 90.3515625 108.15625 C66.5915625 108.15625 42.8315625 108.15625 18.3515625 108.15625 C17.9140625 89.96875 17.9140625 89.96875 17.78344727 84.31567383 C18.25047106 66.63374022 18.25047106 66.63374022 13.3515625 50.15625 C9.88277606 48.42185678 6.13598222 48.55693798 2.3515625 49.15625 C-1.10867619 52.18395886 -1.98230333 54.72659041 -2.6484375 59.15625 C-2.7406977 61.46329262 -2.77898877 63.77273477 -2.78215027 66.08161926 C-2.7855486 67.10861585 -2.7855486 67.10861585 -2.78901559 68.15635985 C-2.79533087 70.44385681 -2.79452782 72.73129414 -2.79370117 75.01879883 C-2.79669422 76.66170834 -2.80009709 78.30461714 -2.80387878 79.94752502 C-2.81270855 84.40630534 -2.81505648 88.86506647 -2.81569457 93.32385468 C-2.8164057 96.11114021 -2.81854123 98.89842087 -2.82119179 101.68570518 C-2.83044212 111.41425257 -2.8345271 121.14278626 -2.83374023 130.87133789 C-2.83313966 139.93206981 -2.84368833 148.99274215 -2.8594839 158.05345899 C-2.87257117 165.83876125 -2.87792363 173.62404407 -2.87728482 181.40935725 C-2.87703017 186.05636641 -2.87986347 190.70332263 -2.89046288 195.35032082 C-2.90016371 199.72271807 -2.90020943 204.09501199 -2.89294624 208.46741295 C-2.89190284 210.06855292 -2.89424874 211.66969939 -2.9003067 213.27082825 C-3.54436492 225.81785106 -3.54436492 225.81785106 0.8515625 237.09375 C3.72306588 239.12773156 5.33228541 239.24681917 8.7890625 238.90625 C9.57152344 238.83921875 10.35398437 238.7721875 11.16015625 238.703125 C13.86021524 238.02931349 14.61397005 237.31811136 16.3515625 235.15625 C20.65961025 223.35658794 19.90341076 210.14410025 20.0390625 197.78125 C20.07230528 195.67706301 20.10680112 193.57289543 20.14257812 191.46875 C20.22667485 186.36469196 20.2938548 181.2606718 20.3515625 176.15625 C15.4015625 176.15625 10.4515625 176.15625 5.3515625 176.15625 C5.3515625 161.96625 5.3515625 147.77625 5.3515625 133.15625 C33.4015625 133.15625 61.4515625 133.15625 90.3515625 133.15625 C90.3515625 182.32625 90.3515625 231.49625 90.3515625 282.15625 C75.1715625 282.15625 59.9915625 282.15625 44.3515625 282.15625 C39.3515625 267.15625 39.3515625 267.15625 39.3515625 264.15625 C37.40826205 266.02181843 35.55420592 267.90950801 33.84375 269.9921875 C26.40597531 279.02130003 16.8270693 284.67890734 5.3515625 287.15625 C-16.87560293 288.84666172 -35.9860285 285.00629383 -53.37890625 270.2265625 C-59.6362164 264.5185171 -64.1214425 258.81481802 -67.9609375 251.28125 C-68.28658691 250.64574219 -68.61223633 250.01023437 -68.94775391 249.35546875 C-73.44433193 240.05833187 -75.14024427 230.44206789 -75.81933594 220.20874023 C-75.89904507 219.08564422 -75.9787542 217.9625482 -76.06087875 216.80541897 C-76.89814384 203.9798272 -76.93829802 191.16410738 -76.9140625 178.31640625 C-76.91541602 175.72781844 -76.91736219 173.13923088 -76.91986084 170.55064392 C-76.92278041 165.16988417 -76.91881895 159.78919743 -76.90917969 154.40844727 C-76.89830931 148.27132227 -76.90182839 142.13433043 -76.9128325 135.99720865 C-76.92315918 129.98724613 -76.92186739 123.97734636 -76.91606903 117.9673748 C-76.91475737 115.45817482 -76.9162904 112.94897132 -76.92102814 110.43977547 C-77.0211234 42.56622321 -77.0211234 42.56622321 -57.6328125 22.98046875 C-41.55967641 7.44977467 -21.93689802 0.93948171 0 0 Z " fill="#003053" transform="translate(1249.6484375,330.84375)"/>
<path d="M0 0 C11.94188843 11.89254178 13.73437018 27.84172058 14.453125 44.0078125 C14.49630859 44.86890625 14.53949219 45.73 14.58398438 46.6171875 C14.91433934 53.72768485 14.890625 60.74348509 14.890625 67.8828125 C-6.889375 67.8828125 -28.669375 67.8828125 -51.109375 67.8828125 C-51.439375 57.3228125 -51.769375 46.7628125 -52.109375 35.8828125 C-53.36181657 30.02816038 -53.36181657 30.02816038 -56.359375 28.4453125 C-59.75407809 27.75094141 -61.79063107 27.84570502 -65.109375 28.8828125 C-68.62794752 31.60170945 -70.82093744 34.20480332 -71.83203125 38.60546875 C-73.12935384 49.25813167 -73.08608206 60.83154534 -66.79296875 69.94140625 C-59.74139544 78.07280285 -48.83106018 83.12459886 -39.73510742 88.60131836 C-31.89761342 93.34187625 -24.39742495 98.34021989 -17.109375 103.8828125 C-16.51833984 104.3272168 -15.92730469 104.77162109 -15.31835938 105.22949219 C5.05929625 120.6041859 15.76179559 135.85312136 19.41625977 161.58374023 C19.9291645 165.78355602 20.06861012 169.93233684 20.09375 174.16015625 C20.09945007 174.92977188 20.10515015 175.69938751 20.11102295 176.49232483 C20.12041132 178.1150681 20.12698218 179.73782991 20.13085938 181.3605957 C20.14047716 183.7830762 20.17152254 186.20467409 20.203125 188.62695312 C20.33052836 207.47556556 18.19533695 224.5129885 5.06640625 238.87890625 C-4.94030288 248.6568906 -18.66918528 253.88206509 -32.109375 256.8828125 C-33.55376953 257.21925781 -33.55376953 257.21925781 -35.02734375 257.5625 C-59.35889557 262.25524315 -87.52707595 259.54099397 -108.984375 246.5703125 C-124.1404175 236.17759764 -131.20924952 224.98774029 -134.65771484 207.02685547 C-136.40939512 196.5028593 -136.33587644 186.14749839 -136.234375 175.5078125 C-136.193125 169.3615625 -136.151875 163.2153125 -136.109375 156.8828125 C-114.659375 156.8828125 -93.209375 156.8828125 -71.109375 156.8828125 C-70.734375 178.9453125 -70.734375 178.9453125 -70.63134766 185.87133789 C-70.59611522 187.69939588 -70.56019106 189.52744072 -70.5234375 191.35546875 C-70.51207764 192.29128784 -70.50071777 193.22710693 -70.48901367 194.19128418 C-70.37367198 199.43933107 -69.95941066 203.94789322 -68.109375 208.8828125 C-65.23090304 211.43231624 -63.43674944 211.84773667 -59.609375 212.2578125 C-55.76786338 211.84622197 -54.02909027 211.39701176 -51.109375 208.8828125 C-44.66948927 196.6930288 -46.31567981 181.19324557 -49.81640625 168.2734375 C-54.92251643 154.75040598 -72.22572094 146.78231404 -83.71728516 139.15942383 C-92.63822396 133.23951074 -101.45749278 127.1911545 -110.109375 120.8828125 C-110.66705566 120.47675781 -111.22473633 120.07070312 -111.79931641 119.65234375 C-125.99828533 109.15648025 -134.74434512 94.14028042 -137.6328125 76.72729492 C-138.12395295 72.76521054 -138.28834332 68.87202795 -138.3125 64.88671875 C-138.32105011 63.75990944 -138.32105011 63.75990944 -138.32977295 62.6103363 C-138.33917147 61.02449934 -138.34573631 59.43864329 -138.34960938 57.8527832 C-138.35922267 55.48286569 -138.39025579 53.11385189 -138.421875 50.74414062 C-138.54662958 32.80335493 -136.54997835 14.54178556 -123.48046875 1.12890625 C-93.32111537 -27.44049769 -31.40343204 -26.72887536 0 0 Z " fill="#003053" transform="translate(630.109375,49.1171875)"/>
<path d="M0 0 C124.5092955 0 124.5092955 0 142.375 16.875 C159.22459642 35.13446061 157.34627568 61.96539794 157.26074219 85.21899414 C157.2499808 88.69369821 157.26072671 92.16788918 157.2734375 95.64257812 C157.30100052 137.79224992 157.30100052 137.79224992 146.02734375 150.97265625 C135.34889748 161.65110252 122.56524095 164.57245984 108 167 C96.45 167 84.9 167 73 167 C73 203.96 73 240.92 73 279 C48.91 279 24.82 279 0 279 C0 186.93 0 94.86 0 0 Z M73 49 C73 72.1 73 95.2 73 119 C82.01266938 119.18713724 82.01266938 119.18713724 90 116 C93.86900104 111.33735772 95.10846283 107.46132288 95.16113281 101.52612305 C95.17074036 100.64808517 95.1803479 99.7700473 95.19024658 98.86540222 C95.19449646 97.92368668 95.19874634 96.98197113 95.203125 96.01171875 C95.21167511 94.54687798 95.21167511 94.54687798 95.22039795 93.05244446 C95.22983651 90.98720377 95.23637738 88.9219481 95.24023438 86.85668945 C95.24993212 83.70952857 95.2809634 80.56302311 95.3125 77.41601562 C95.31903135 75.40625386 95.3242813 73.39648745 95.328125 71.38671875 C95.3404718 70.4510759 95.3528186 69.51543304 95.36553955 68.55143738 C95.34652399 62.92809583 94.74437428 58.94930095 92 54 C85.60599668 48.83038029 81.4431449 49 73 49 Z " fill="#003054" transform="translate(669,30)"/>
<path d="M0 0 C24.75 0 49.5 0 75 0 C75 75.57 75 151.14 75 229 C90.18 229 105.36 229 121 229 C121 248.14 121 267.28 121 287 C81.07 287 41.14 287 0 287 C0 192.29 0 97.58 0 0 Z " fill="#003054" transform="translate(537,331)"/>
<path d="M0 0 C2.22284583 -0.0022052 4.44520923 -0.02045725 6.66796875 -0.03930664 C8.08463373 -0.04223777 9.50130105 -0.04422444 10.91796875 -0.04516602 C12.83851074 -0.05132935 12.83851074 -0.05132935 14.79785156 -0.05761719 C17.96484375 0.18530273 17.96484375 0.18530273 20.96484375 2.18530273 C19.78728516 3.34545898 19.78728516 3.34545898 18.5859375 4.52905273 C17.52460131 5.58099657 16.46341132 6.63308794 15.40234375 7.68530273 C14.88865234 8.19061523 14.37496094 8.69592773 13.84570312 9.21655273 C10.97299791 12.07141506 8.23551805 14.98971061 5.59375 18.06030273 C1.09668216 23.25951268 -3.81735532 28.01612078 -8.71875 32.82983398 C-12.75338115 36.82068975 -16.57487363 40.90182282 -20.27539062 45.20288086 C-23.99907534 49.39770881 -28.07171164 53.25947201 -32.07421875 57.18530273 C-36.07778918 61.14249976 -39.88497118 65.19623523 -43.54711914 69.47241211 C-45.28566859 71.47366936 -47.12309696 73.34972582 -49.03515625 75.18530273 C-41.76590196 78.09127984 -34.37772074 79.97374823 -26.78710938 81.84741211 C-20.02894598 83.55611386 -13.54125282 85.68332531 -7.03515625 88.18530273 C-9.72319593 97.99814647 -13.50198998 107.35519318 -17.22265625 116.81030273 C-17.88382422 118.49896365 -18.54463453 120.18776464 -19.20507812 121.87670898 C-20.81098353 125.98120087 -22.42172322 130.08376437 -24.03515625 134.18530273 C-35.05355386 132.55301891 -44.73259912 126.41160246 -53.03515625 119.18530273 C-48.97857352 125.59043336 -44.48972025 131.63155764 -39.921875 137.67431641 C-35.41045266 143.6543007 -30.99990018 149.70256571 -26.6418457 155.79516602 C-24.27615168 159.10041878 -21.9037411 162.38729932 -19.40234375 165.59155273 C-18.66242188 166.55061523 -17.9225 167.50967773 -17.16015625 168.49780273 C-16.52335938 169.29831055 -15.8865625 170.09881836 -15.23046875 170.92358398 C-14.03515625 173.18530273 -14.03515625 173.18530273 -14.33984375 175.97827148 C-14.56929687 176.7065918 -14.79875 177.43491211 -15.03515625 178.18530273 C-17.19140625 178.61499023 -17.19140625 178.61499023 -20.03515625 178.18530273 C-22.12665453 175.92771489 -23.79752605 173.82037527 -25.53515625 171.31030273 C-26.0441748 170.60301025 -26.55319336 169.89571777 -27.07763672 169.16699219 C-28.16892052 167.64785479 -29.25316066 166.12363784 -30.33105469 164.5949707 C-32.07991711 162.12200908 -33.85426019 159.66929761 -35.63671875 157.22045898 C-44.12741897 145.54690866 -44.12741897 145.54690866 -47.03515625 141.18530273 C-47.04933594 142.10311523 -47.06351563 143.02092773 -47.078125 143.96655273 C-47.62783112 158.11034275 -47.62783112 158.11034275 -53.03515625 163.18530273 C-57.6255336 166.06802589 -62.61256042 167.78852743 -68.03515625 168.18530273 C-68.69515625 167.85530273 -69.35515625 167.52530273 -70.03515625 167.18530273 C-70.66015625 165.12280273 -70.66015625 165.12280273 -71.03515625 163.18530273 C-77.15311987 166.7966007 -81.68234039 170.6650982 -86.11328125 176.23217773 C-90.12673616 180.31089207 -94.44417907 180.50027584 -99.97265625 180.56030273 C-105.59760219 180.44909152 -108.87530888 180.24610611 -113.03515625 176.18530273 C-115.01937436 173.9320381 -116.98276662 171.66285702 -118.93359375 169.38061523 C-121.91172428 166.2696313 -125.24904417 164.18912269 -129.03515625 162.18530273 C-129.01453125 162.98967773 -128.99390625 163.79405273 -128.97265625 164.62280273 C-129.03515625 167.18530273 -129.03515625 167.18530273 -130.03515625 168.18530273 C-136.04815802 167.86882896 -141.05550054 166.69645687 -146.03515625 163.18530273 C-150.13838595 158.02996286 -151.1494768 153.96439199 -151.59765625 147.49780273 C-151.68144531 146.31831055 -151.76523438 145.13881836 -151.8515625 143.92358398 C-151.91214844 143.01995117 -151.97273438 142.11631836 -152.03515625 141.18530273 C-152.73898438 142.19206055 -153.4428125 143.19881836 -154.16796875 144.23608398 C-159.93030903 152.45248006 -165.76836847 160.60668669 -171.72265625 168.68530273 C-172.33447754 169.51586182 -172.94629883 170.3464209 -173.57666016 171.20214844 C-177.89969505 177.04984153 -177.89969505 177.04984153 -179.03515625 178.18530273 C-180.7013274 178.22594106 -182.3690372 178.22802374 -184.03515625 178.18530273 C-184.85546875 176.13452148 -184.85546875 176.13452148 -185.03515625 173.18530273 C-183.42433469 170.57455609 -181.83262921 168.35965638 -179.91015625 165.99780273 C-178.78993979 164.56555797 -177.67151251 163.13191238 -176.5546875 161.69702148 C-175.97154785 160.95500488 -175.3884082 160.21298828 -174.78759766 159.44848633 C-171.96450437 155.80261356 -169.28208048 152.05882306 -166.59765625 148.31030273 C-165.52226294 146.81541932 -164.44674078 145.32062859 -163.37109375 143.82592773 C-162.8306543 143.07375977 -162.29021484 142.3215918 -161.73339844 141.54663086 C-158.73655581 137.37965819 -155.72889574 133.22049827 -152.72265625 129.06030273 C-151.62235038 127.53689806 -150.52208559 126.01346372 -149.421875 124.48999023 C-148.62630208 123.38842773 -147.83072917 122.28686523 -147.03515625 121.18530273 C-150.20356298 122.72699393 -153.00213023 124.50461165 -155.91015625 126.49780273 C-166.29625306 133.18455055 -177.42772683 136.36236551 -189.66015625 136.37280273 C-190.42328125 136.38504883 -191.18640625 136.39729492 -191.97265625 136.40991211 C-195.85521947 136.42012938 -197.73194548 136.38744324 -201.03515625 134.18530273 C-199.74931641 132.80858398 -199.74931641 132.80858398 -198.4375 131.40405273 C-190.52787473 122.92205562 -190.52787473 122.92205562 -182.83984375 114.23999023 C-180.44733851 111.5160557 -177.99109683 108.85187004 -175.53515625 106.18530273 C-172.4962329 102.88505444 -169.47359469 99.57580863 -166.53515625 96.18530273 C-163.59671175 92.79478984 -160.5738418 89.48577644 -157.53515625 86.18530273 C-149.83457448 78.04858348 -149.83457448 78.04858348 -143.03515625 69.18530273 C-148.18348697 67.42518967 -153.34548477 65.78016136 -158.56640625 64.24780273 C-159.7059375 63.91006836 -160.84546875 63.57233398 -162.01953125 63.22436523 C-164.39203597 62.52315828 -166.76712512 61.83064503 -169.14453125 61.14624023 C-170.27375 60.80850586 -171.40296875 60.47077148 -172.56640625 60.12280273 C-173.59314453 59.82245117 -174.61988281 59.52209961 -175.67773438 59.21264648 C-176.45568359 58.87362305 -177.23363281 58.53459961 -178.03515625 58.18530273 C-179.28583439 54.43326832 -178.59769474 53.36125647 -177.19140625 49.72436523 C-176.7722998 48.6219751 -176.35319336 47.51958496 -175.92138672 46.38378906 C-175.46393066 45.20453857 -175.00647461 44.02528809 -174.53515625 42.81030273 C-170.05762001 31.02652181 -165.91676175 19.17715018 -162.03515625 7.18530273 C-157.66038559 5.61244806 -155.06684578 6.68611875 -151.05834961 8.53466797 C-150.3288208 8.89375244 -149.59929199 9.25283691 -148.84765625 9.62280273 C-148.09170166 9.98897705 -147.33574707 10.35515137 -146.55688477 10.73242188 C-136.50694988 15.76008021 -129.17348236 22.5714567 -122.03515625 31.18530273 C-120.81699219 30.86045898 -119.59882813 30.53561523 -118.34375 30.20092773 C-112.26790941 28.85575826 -106.29607598 28.89248118 -100.09765625 28.93530273 C-98.98197266 28.92756836 -97.86628906 28.91983398 -96.71679688 28.91186523 C-91.40858938 28.92430392 -86.6651152 29.16843529 -81.515625 30.50170898 C-79.17334242 31.09140239 -79.17334242 31.09140239 -77.03515625 31.18530273 C-74.1929137 29.39008296 -74.1929137 29.39008296 -72.28515625 26.37280273 C-66.76216217 19.51457932 -60.65696828 15.49328345 -53.03515625 11.18530273 C-52.17664063 10.69288086 -51.318125 10.20045898 -50.43359375 9.69311523 C-35.24065326 1.92783454 -16.76845366 -0.00186814 0 0 Z " fill="#033256" transform="translate(337.03515625,280.814697265625)"/>
<path d="M0 0 C24.75 0 49.5 0 75 0 C75 94.71 75 189.42 75 287 C50.25 287 25.5 287 0 287 C0 192.29 0 97.58 0 0 Z " fill="#003054" transform="translate(682,331)"/>
<path d="M0 0 C1 2 1 2 0.58926392 3.77774048 C0.33631561 4.49900116 0.08336731 5.22026184 -0.17724609 5.96337891 C-0.46342804 6.79107285 -0.74960999 7.61876678 -1.04446411 8.47154236 C-1.36752533 9.38069901 -1.69058655 10.28985565 -2.0234375 11.2265625 C-2.35624725 12.18168228 -2.68905701 13.13680206 -3.0319519 14.12086487 C-4.13897447 17.2915269 -5.25687757 20.45823695 -6.375 23.625 C-7.14607882 25.82572775 -7.9165795 28.02665815 -8.68652344 30.2277832 C-11.11319483 37.15580227 -13.55569417 44.07818686 -16 51 C-16.79920742 53.26576879 -17.59836175 55.53155631 -18.39746094 57.79736328 C-24.89432381 76.21150379 -31.42244485 94.61452107 -38 113 C-36.79931885 113.24476074 -35.5986377 113.48952148 -34.36157227 113.74169922 C-27.87513565 115.1862192 -21.56188338 117.17679058 -15.21484375 119.1328125 C-13.90500413 119.5338185 -12.59507102 119.93451926 -11.28504944 120.33493042 C-7.86638443 121.3807367 -4.4489907 122.43063715 -1.03186035 123.48144531 C2.46692199 124.55655055 5.96691183 125.62770984 9.46679688 126.69921875 C16.31237424 128.79565633 23.15661114 130.89642804 30 133 C30 136.96029326 28.7395409 137.71156585 26.0625 140.5625 C25.23878906 141.45066406 24.41507813 142.33882812 23.56640625 143.25390625 C22.71949219 144.16011719 21.87257813 145.06632813 21 146 C19.4961693 147.66321105 17.99605985 149.32979561 16.5 151 C13.5 154.33333333 10.5 157.66666667 7.5 161 C6.76007813 161.82242188 6.02015625 162.64484375 5.2578125 163.4921875 C3.73291756 165.18592894 2.20684598 166.87861169 0.6796875 168.5703125 C-2.69912708 172.31564256 -6.06895965 176.06518207 -9.375 179.875 C-12.82851561 183.84252724 -16.3900394 187.7084764 -19.95263672 191.57763672 C-22.50525763 194.35458682 -25.02968205 197.14963313 -27.5 200 C-30.9067735 203.9308925 -34.43002785 207.75196573 -37.953125 211.578125 C-40.50555143 214.35494057 -43.02983288 217.14980717 -45.5 220 C-48.9067735 223.9308925 -52.43002785 227.75196573 -55.953125 231.578125 C-58.50555143 234.35494057 -61.02983288 237.14980717 -63.5 240 C-66.4384401 243.3905078 -69.46114142 246.6996903 -72.5 250 C-76.11841138 253.93014394 -79.68545313 257.89598084 -83.18359375 261.93359375 C-85.46426223 264.52816068 -87.7946456 267.07499512 -90.125 269.625 C-93.51779188 273.34362403 -96.82998836 277.09031898 -100 281 C-100.66 280.67 -101.32 280.34 -102 280 C-91.55227112 252.17518396 -80.9503439 224.41275838 -70.22607422 196.69360352 C-69.76763123 195.50854218 -69.30918823 194.32348083 -68.83685303 193.10250854 C-67.97833825 190.88391318 -67.11936213 188.66549626 -66.25982666 186.44729614 C-64.14170044 180.97621625 -62.0477786 175.4978136 -60 170 C-61.03664795 169.91153809 -62.0732959 169.82307617 -63.14135742 169.73193359 C-69.50017823 168.93041253 -75.5869557 167.0353891 -81.73828125 165.2890625 C-83.06798685 164.91602204 -84.397839 164.5435036 -85.72782898 164.17147827 C-89.21512577 163.19457058 -92.7004751 162.21088978 -96.1854248 161.22564697 C-99.70259749 160.232462 -103.22145075 159.24527192 -106.74023438 158.2578125 C-110.71356872 157.14260562 -114.68660278 156.02639261 -118.65852356 154.90615845 C-125.76310579 152.90256222 -132.87436935 150.9274653 -140 149 C-140 142.85251005 -132.9841184 137.93703877 -128.84375 133.78125 C-126.67305118 131.63410306 -124.49475594 129.49484975 -122.31640625 127.35546875 C-118.2817751 123.36461298 -114.46028262 119.28347991 -110.75976562 114.98242188 C-107.03608091 110.78759393 -102.96344461 106.92583073 -98.9609375 103 C-95.69334698 99.77025802 -92.52847667 96.51488375 -89.53125 93.03125 C-85.07439395 87.85685023 -80.1855361 83.13749431 -75.31640625 78.35546875 C-71.2817751 74.36461298 -67.46028262 70.28347991 -63.75976562 65.98242188 C-60.03608091 61.78759393 -55.96344461 57.92583073 -51.9609375 54 C-48.69334698 50.77025802 -45.52847667 47.51488375 -42.53125 44.03125 C-38.07439395 38.85685023 -33.1855361 34.13749431 -28.31640625 29.35546875 C-24.28270512 25.36553291 -20.45893797 21.28653486 -16.75927734 16.98632812 C-13.67862535 13.50808991 -10.36776369 10.26309644 -7.0625 7 C-6.37865234 6.32066406 -5.69480469 5.64132813 -4.99023438 4.94140625 C-3.32912841 3.29191641 -1.66571487 1.6448332 0 0 Z " fill="#F6951D" transform="translate(976,32)"/>
<path d="M0 0 C4.99235856 1.99812291 4.99235856 1.99812291 10.1953125 0.90625 C11.9278125 0.0090625 11.9278125 0.0090625 13.6953125 -0.90625 C29.99111694 -6.73113329 47.28628502 -1.85432333 62.7109375 4.01171875 C68.95818589 6.27675514 75.34252518 8.14885652 81.6953125 10.09375 C81.21338559 16.04191639 79.99707659 20.49927869 77.2578125 25.78125 C76.72982056 26.81282227 76.72982056 26.81282227 76.19116211 27.86523438 C65.9545333 47.1834988 49.53961739 61.12805824 28.6953125 68.09375 C7.90373795 74.13158429 -13.38001981 71.45620112 -32.4140625 61.4609375 C-39.05041492 57.43038448 -44.77892641 52.52726132 -50.3046875 47.09375 C-51.00464844 46.40667969 -51.70460937 45.71960938 -52.42578125 45.01171875 C-60.05943857 36.99117042 -67.82142845 25.02400046 -70.3046875 14.09375 C-69.89453125 11.31640625 -69.89453125 11.31640625 -69.3046875 9.09375 C-68.08394531 8.79082031 -66.86320313 8.48789062 -65.60546875 8.17578125 C-58.05229581 6.26478386 -50.64642873 4.38881464 -43.4296875 1.40625 C-30.10243434 -3.95839115 -13.57407888 -5.3376039 0 0 Z " fill="#043357" transform="translate(233.3046875,486.90625)"/>
<path d="M0 0 C1.39992188 -0.04253906 1.39992188 -0.04253906 2.828125 -0.0859375 C7.13249271 -0.09813118 10.57688779 -0.06227418 14.1015625 2.59375 C20.03433384 9.42653929 20.04902063 15.5232263 20.125 24.25 C20.19783063 32.49026501 21.06932491 39.64635985 23.625 47.5 C24.00140625 48.6653125 24.3778125 49.830625 24.765625 51.03125 C29.43272122 63.52066242 35.86341488 72.44549147 45.625 81.5 C43.62467627 82.50016187 41.79374252 82.99396008 39.625 83.5 C40.2825111 87.28587971 41.39369063 90.70003584 42.6875 94.3125 C45.16732929 102.24976381 46.88908984 112.64001406 43.265625 120.41796875 C41.625 122.5 41.625 122.5 38.9375 123.3125 C38.174375 123.374375 37.41125 123.43625 36.625 123.5 C36.295 122.18 35.965 120.86 35.625 119.5 C29.04786059 118.80030432 24.99489042 120.76442406 19.625 124.5 C15.45324884 127.87001397 11.58331072 131.28950224 8.25 135.5 C4.60352893 138.27826367 1.69979269 138.2028975 -2.796875 137.98046875 C-6.65190083 137.26203212 -8.02070934 135.57365725 -10.375 132.5 C-16.91149582 124.79947068 -25.26581685 119.79181241 -35.375 118.5 C-35.705 120.15 -36.035 121.8 -36.375 123.5 C-39.63689156 122.9376049 -41.28634848 122.0859495 -43.375 119.5 C-46.35577574 110.55767278 -44.4198907 101.07058892 -41.34765625 92.4375 C-40.36224566 89.46148088 -39.81317873 86.59953795 -39.375 83.5 C-40.695 82.84 -42.015 82.18 -43.375 81.5 C-42.05538168 78.51484399 -40.71045449 76.74213526 -38.25 74.625 C-34.82779432 71.31734513 -32.45459336 67.61724403 -30.125 63.5 C-29.79612793 62.91879395 -29.46725586 62.33758789 -29.12841797 61.73876953 C-25.52711201 55.19244461 -22.8957631 48.69918381 -21.25 41.4375 C-20.98799805 40.29522949 -20.98799805 40.29522949 -20.72070312 39.12988281 C-19.17677123 31.76810795 -18.86929318 24.44630564 -18.87841797 16.93725586 C-18.80505081 11.28333452 -18.24099841 7.93773057 -14.375 3.5 C-9.87885178 -0.48199596 -5.76299984 -0.01578904 0 0 Z " fill="#FDFDFD" transform="translate(237.375,316.5)"/>
<path d="M0 0 C7.12964414 6.62385765 13.12287484 14.64917717 16.86328125 23.66015625 C16.86328125 24.32015625 16.86328125 24.98015625 16.86328125 25.66015625 C10.16902937 25.10555042 3.69006556 24.13130402 -2.88671875 22.78515625 C-27.95024449 17.90061431 -55.22241677 13.24933824 -79.91796875 22.171875 C-82.65135665 22.77341283 -84.46630304 22.44843817 -87.13671875 21.66015625 C-89.98414059 19.30086387 -91.83859769 17.11236466 -93.13671875 13.66015625 C-93.27669102 10.87190867 -93.32561005 8.19188509 -93.26171875 5.41015625 C-93.25269531 4.66507812 -93.24367188 3.92 -93.234375 3.15234375 C-93.21090233 1.32147566 -93.175034 -0.50922613 -93.13671875 -2.33984375 C-78.92658799 -6.98141923 -65.17123223 -9.12726226 -50.32421875 -10.21484375 C-49.08608429 -10.30652328 -49.08608429 -10.30652328 -47.82293701 -10.40005493 C-29.16072767 -11.74637521 -15.47806246 -12.27994624 0 0 Z " fill="#023255" transform="translate(371.13671875,253.33984375)"/>
<path d="M0 0 C1.01320312 0.05462402 2.02640625 0.10924805 3.0703125 0.16552734 C16.23089875 0.9079096 29.19086349 1.73492599 42 5 C43.0216626 5.26031006 43.0216626 5.26031006 44.06396484 5.52587891 C48.38954862 6.63627781 52.69880148 7.79810481 57 9 C57.0816082 11.37570543 57.14077222 13.74855841 57.1875 16.125 C57.21263672 16.79015625 57.23777344 17.4553125 57.26367188 18.140625 C57.33339466 22.88177444 56.47663551 25.97472845 54 30 C51.625 32.4375 51.625 32.4375 49 34 C46.20422862 33.86021143 44.25374249 33.10819477 41.69140625 32.015625 C15.42772088 22.10480033 -20.51226777 29.81167542 -46.7890625 36.265625 C-50 37 -50 37 -53 37 C-51.42019638 26.00061732 -41.7852524 15.8944923 -33.58984375 8.9609375 C-22.86703117 0.9740565 -13.15530886 -0.76585618 0 0 Z " fill="#023155" transform="translate(147,243)"/>
<path d="M0 0 C2.01689941 0.18259756 4.0338275 0.36487858 6.05078125 0.546875 C9.17014372 0.83270719 12.28917679 1.12131946 15.40771484 1.41601562 C29.51274581 2.74068552 43.41241298 3.42604959 57.578125 3.125 C58.31905396 3.11092102 59.05998291 3.09684204 59.82336426 3.08233643 C64.49313285 2.98958673 69.16010881 2.84723293 73.828125 2.6875 C75.13652344 2.64818359 76.44492187 2.60886719 77.79296875 2.56835938 C84.44558862 2.34974447 90.97257342 1.92926876 97.578125 1.125 C99.36800377 1.02346334 101.16042722 0.95200403 102.953125 0.9375 C103.76523437 0.92332031 104.57734375 0.90914063 105.4140625 0.89453125 C107.578125 1.125 107.578125 1.125 110.578125 3.125 C110.248125 4.445 109.918125 5.765 109.578125 7.125 C108.57910156 7.31835938 107.58007812 7.51171875 106.55078125 7.7109375 C105.26042969 7.97132813 103.97007812 8.23171875 102.640625 8.5 C101.35285156 8.75523437 100.06507813 9.01046875 98.73828125 9.2734375 C97.69542969 9.55445313 96.65257812 9.83546875 95.578125 10.125 C95.248125 10.785 94.918125 11.445 94.578125 12.125 C92.5390625 12.72265625 92.5390625 12.72265625 89.953125 13.1875 C89.04949219 13.35121094 88.14585937 13.51492188 87.21484375 13.68359375 C78.484375 15.14513889 78.484375 15.14513889 74.765625 15.0625 C72.36481732 14.88055866 72.36481732 14.88055866 70.578125 17.125 C65.83563825 18.58986077 60.86178447 18.19937363 55.953125 18.125 C54.25266823 18.09946762 52.55213621 18.07844288 50.8515625 18.0625 C50.10310059 18.05089844 49.35463867 18.03929687 48.58349609 18.02734375 C46.36915529 18.04481779 46.36915529 18.04481779 43.578125 19.125 C38.35778799 19.69980245 34.06767892 19.63658683 29.390625 17.125 C24.06287147 14.37058002 18.82953472 15.03718836 13.03125 15.47265625 C8.58077983 15.02458855 7.59625148 13.27520009 4.578125 10.125 C1.69152411 9.52625706 1.69152411 9.52625706 -1.234375 9.8125 C-2.21019531 9.85761719 -3.18601563 9.90273438 -4.19140625 9.94921875 C-5.29548828 10.03623047 -5.29548828 10.03623047 -6.421875 10.125 C-6.751875 8.805 -7.081875 7.485 -7.421875 6.125 C-8.4325 6.2075 -9.443125 6.29 -10.484375 6.375 C-15.32462868 6.06768231 -17.41555767 4.7413705 -21.421875 2.125 C-21.421875 1.465 -21.421875 0.805 -21.421875 0.125 C-15.64578788 -2.76304356 -6.30045807 -0.60198372 0 0 Z " fill="#F8F9FA" transform="translate(194.421875,499.875)"/>
<path d="M0 0 C0.70125 0.309375 1.4025 0.61875 2.125 0.9375 C4.99688473 2.1164202 4.99688473 2.1164202 8.1875 2.4375 C9.5796875 2.7159375 9.5796875 2.7159375 11 3 C11.99 4.485 11.99 4.485 13 6 C15.06215275 6.507299 15.06215275 6.507299 17.375 6.5625 C21.912796 6.81291349 24.60596683 8.02370741 28.3203125 10.625 C32.610661 12.82646162 36.71750265 12.06105481 41.4296875 11.8125 C45 12 45 12 48.28076172 13.49121094 C51.94706962 15.12853826 55.03781018 15.35980089 59.078125 15.328125 C59.73020935 15.32625183 60.3822937 15.32437866 61.05413818 15.32244873 C62.4256303 15.31577171 63.7971048 15.30194478 65.16845703 15.28125 C67.23098194 15.25028552 69.29273486 15.240284 71.35546875 15.234375 C82.74190964 15.35651058 82.74190964 15.35651058 94 14 C94.33 13.34 94.66 12.68 95 12 C97.44140625 11.65625 97.44140625 11.65625 100.5625 11.5 C104.37297928 11.25504062 107.88383562 10.90447697 111.5625 9.875 C115 9 115 9 118 10 C92.94650504 23.1264322 70.56224292 31.0175667 42.45996094 22.77832031 C36.04190993 20.74767853 30.01745206 17.99490551 24 15 C23.19014648 14.60055176 22.38029297 14.20110352 21.54589844 13.78955078 C18.95851093 12.50269938 16.38339328 11.19447136 13.8125 9.875 C12.60871704 9.26362183 12.60871704 9.26362183 11.38061523 8.63989258 C6.82966775 6.24381752 3.42031761 3.85214128 0 0 Z " fill="#F5F7F8" transform="translate(173,506)"/>
<path d="M0 0 C0.70125 0.309375 1.4025 0.61875 2.125 0.9375 C4.99688473 2.1164202 4.99688473 2.1164202 8.1875 2.4375 C9.5796875 2.7159375 9.5796875 2.7159375 11 3 C11.99 4.485 11.99 4.485 13 6 C13.99 6.66 14.98 7.32 16 8 C15.34 8.66 14.68 9.32 14 10 C11.85032779 8.7143824 9.70533651 7.42192095 7.5625 6.125 C6.95083984 5.76019531 6.33917969 5.39539063 5.70898438 5.01953125 C1.11328125 2.2265625 1.11328125 2.2265625 0 0 Z " fill="#C3CFD7" transform="translate(173,506)"/>
</svg>
